<svg viewBox="0 0 955 132" xmlns="http://www.w3.org/2000/svg" fill-rule="evenodd" clip-rule="evenodd" stroke-linejoin="round" stroke-miterlimit="2"><path d="M386.238 19.545c-1.722-1.723-4.154-2.838-6.789-2.838s-5.067 1.064-6.79 2.838c-1.722 1.722-2.837 4.154-2.837 6.789s1.115 5.067 2.838 6.79c1.722 1.722 4.154 2.837 6.789 2.837s5.067-1.064 6.79-2.838c1.722-1.722 2.837-4.154 2.837-6.789s-1.064-5.067-2.838-6.79v.001zM379.45 38.95c.71 0 1.317.608 1.317 1.317v3.902c0 .709-.608 1.317-1.317 1.317a1.345 1.345 0 01-1.317-1.317v-3.902c0-.709.608-1.317 1.317-1.317zm8.917-3.699c.507-.506 1.368-.506 1.824 0l2.787 2.787a1.286 1.286 0 010 1.824 1.286 1.286 0 01-1.824 0l-2.787-2.787a1.286 1.286 0 010-1.824zm-19.709 0c.507-.506 1.368-.506 1.824 0a1.286 1.286 0 010 1.824l-2.787 2.787a1.286 1.286 0 01-1.824 0 1.286 1.286 0 010-1.824l2.787-2.787zm10.792-15.909c1.925 0 3.699.76 4.965 2.027 1.267 1.266 2.027 3.04 2.027 4.965 0 1.925-.76 3.699-2.027 4.965-1.266 1.267-3.04 2.027-4.965 2.027-1.925 0-3.699-.76-4.965-2.027-1.267-1.266-2.027-3.04-2.027-4.965 0-1.925.76-3.699 2.027-4.965 1.266-1.267 3.04-2.027 4.965-2.027zm17.835 5.675c.709 0 1.317.608 1.317 1.317a1.345 1.345 0 01-1.317 1.317h-3.902a1.347 1.347 0 01-1.317-1.317c0-.71.608-1.317 1.317-1.317h3.902zm-31.768 0c.709 0 1.317.608 1.317 1.317a1.345 1.345 0 01-1.317 1.317h-3.902c-.76 0-1.317-.608-1.317-1.317 0-.71.608-1.317 1.317-1.317h3.902zm25.688-12.211a1.286 1.286 0 011.824 0 1.286 1.286 0 010 1.824l-2.787 2.787c-.507.506-1.368.506-1.824 0a1.286 1.286 0 010-1.824l2.787-2.787zm-25.334 0a1.286 1.286 0 011.824 0l2.787 2.787a1.286 1.286 0 010 1.824 1.286 1.286 0 01-1.824 0l-2.787-2.787a1.286 1.286 0 010-1.824zm13.579-5.624c.71 0 1.317.608 1.317 1.317v3.902c0 .709-.608 1.317-1.317 1.317a1.345 1.345 0 01-1.317-1.317V8.499c0-.709.608-1.317 1.317-1.317zM193.017 67.51h16.518c3.774-.003 6.877-3.109 6.877-6.883a6.903 6.903 0 00-5.582-6.759c-.625-4.775-4.739-8.385-9.554-8.385-4.816 0-8.93 3.61-9.555 8.385a6.904 6.904 0 00-5.588 6.76c0 3.776 3.108 6.883 6.883 6.883h.001v-.001zm0-11.012c.755 0 1.376-.621 1.376-1.376 0-3.776 3.107-6.883 6.883-6.883s6.883 3.107 6.883 6.883c0 .755.621 1.376 1.376 1.376 2.266 0 4.13 1.864 4.13 4.13s-1.864 4.13-4.13 4.13h-16.518c-2.266 0-4.13-1.864-4.13-4.13s1.864-4.13 4.13-4.13zM470.992 28.13h11.426c2.455 0 4.507-1.907 4.74-4.404.231-2.496-1.433-4.764-3.844-5.236-.436-3.388-3.263-5.921-6.609-5.921-3.345 0-6.173 2.533-6.608 5.921-2.411.472-4.076 2.74-3.844 5.236.232 2.497 2.284 4.404 4.74 4.404h-.001zm0-7.781a.94.94 0 00.674-.285.982.982 0 00.279-.688c0-2.685 2.131-4.863 4.76-4.863 2.63 0 4.761 2.178 4.761 4.863 0 .258.1.506.279.688.178.182.42.285.673.285 1.578 0 2.857 1.306 2.857 2.918 0 1.611-1.28 2.917-2.857 2.917h-11.425c-1.578 0-2.857-1.306-2.857-2.917 0-1.612 1.279-2.918 2.856-2.918zm246.31 25.017h16.519c3.776 0 6.883-3.107 6.883-6.883a6.904 6.904 0 00-5.588-6.76c-.625-4.775-4.739-8.385-9.555-8.385-4.815 0-8.929 3.61-9.554 8.385a6.904 6.904 0 00-5.588 6.76c0 3.776 3.108 6.883 6.883 6.883zm.001-11.012c.755 0 1.376-.621 1.376-1.376v-.001c0-3.776 3.107-6.883 6.883-6.883s6.883 3.107 6.883 6.883v.001c0 .755.621 1.376 1.376 1.376 2.266 0 4.13 1.864 4.13 4.13s-1.864 4.13-4.13 4.13h-16.518c-2.266 0-4.13-1.864-4.13-4.13s1.864-4.13 4.13-4.13zM886.017 56.02h-3.116v-4.67c0-.933-.623-1.556-1.558-1.556h-9.35c-.934 0-1.557.623-1.557 1.556v4.669h-3.117c-.935 0-1.558.622-1.558 1.556v24.897h-1.558v-4.668c0-.934-.623-1.556-1.558-1.556h-1.558v-1.556c0-.934-.624-1.556-1.559-1.556-.934 0-1.558.622-1.558 1.556v1.556h-1.558c-.935 0-1.558.622-1.558 1.556v4.668h-4.675V51.351c0-.933-.623-1.556-1.558-1.556h-4.674V40.46c0-.934-.624-1.556-1.558-1.556H823.69c-.935 0-1.559.622-1.559 1.556v9.336h-4.674c-.935 0-1.558.623-1.558 1.556V91.81h-3.117v-4.668c0-.934-.623-1.556-1.558-1.556h-9.349c-.935 0-1.558.622-1.558 1.556v4.668h-1.558c-.935 0-1.558.622-1.558 1.556v36.748c0 .934.623 1.556 1.558 1.556h87.257c.935 0 1.559-.622 1.559-1.556V57.576c0-.934-.624-1.556-1.559-1.556h.001zm-6.222-2.753v3.59h-5.985v-3.59h5.985zm-19.152 25.735v3.591h-3.59v-3.591h3.59zm-41.296-25.773h4.688c.938 0 1.563-.613 1.563-1.534v-9.201h15.627v9.201c0 .92.625 1.534 1.563 1.534h4.688v29.14h-3.125V57.83c0-.92-.626-1.534-1.563-1.534-.938 0-1.563.614-1.563 1.534v24.538H838.1V57.83c0-.92-.625-1.534-1.563-1.534s-1.563.614-1.563 1.534v24.538h-3.125V57.83c0-.92-.625-1.534-1.563-1.534s-1.563.614-1.563 1.534v33.741h-3.125V57.83c0-.92-.625-1.534-1.563-1.534s-1.563.614-1.563 1.534v33.74h-3.125V53.229zm-15.561 35.349h5.985v3.591h-5.985v-3.591zm-3.591 5.985h28.129v3.156h-10.94c-.937 0-1.562.63-1.562 1.578v29.979h-15.627V94.563zm19.152 5.985h9.576v3.126h-4.788c-.958 0-1.596.625-1.596 1.562 0 .938.638 1.563 1.596 1.563h4.788v3.126h-4.788c-.958 0-1.596.625-1.596 1.562 0 .938.638 1.563 1.596 1.563h4.788v3.125h-4.788c-.958 0-1.596.625-1.596 1.563s.638 1.563 1.596 1.563h4.788v3.126h-4.788c-.958 0-1.596.625-1.596 1.562 0 .938.638 1.563 1.596 1.563h4.788v3.126h-9.576v-28.13zm11.97 28.728V86.184h34.713v43.092h-3.156V90.801c0-.923-.631-1.539-1.578-1.539-.947 0-1.578.616-1.578 1.539v38.475h-3.156V90.801c0-.923-.63-1.539-1.577-1.539s-1.578.616-1.578 1.539v38.475h-3.156V90.801c0-.923-.631-1.539-1.578-1.539-.947 0-1.578.616-1.578 1.539v38.475h-3.155V90.801c0-.923-.632-1.539-1.578-1.539-.947 0-1.578.616-1.578 1.539v38.475h-3.156V90.801c0-.923-.631-1.539-1.578-1.539-.947 0-1.578.616-1.578 1.539v38.475h-3.155zm53.865-70.024v70.024h-16.16V59.252h16.16zm-80.2 57.456c1.078 0 1.796.598 1.796 1.496v2.992c0 .898-.718 1.497-1.795 1.497-1.078 0-1.796-.599-1.796-1.497v-2.992c0-.898.718-1.496 1.796-1.496h-.001zm6.584 0c1.077 0 1.796.598 1.796 1.496v2.992c0 .898-.719 1.497-1.796 1.497s-1.795-.599-1.795-1.497v-2.992c0-.898.718-1.496 1.795-1.496zm-6.583-9.576c1.077 0 1.795.598 1.795 1.496v2.992c0 .898-.718 1.497-1.795 1.497-1.078 0-1.796-.599-1.796-1.497v-2.992c0-.898.718-1.496 1.796-1.496zm6.583 0c1.077 0 1.796.598 1.796 1.496v2.992c0 .898-.719 1.497-1.796 1.497s-1.795-.599-1.795-1.497v-2.992c0-.898.718-1.496 1.795-1.496zm-6.583-8.978c1.077 0 1.795.598 1.795 1.496v2.993c0 .898-.718 1.496-1.795 1.496-1.078 0-1.796-.598-1.796-1.496V99.65c0-.898.718-1.496 1.796-1.496zm6.583 0c1.077 0 1.796.598 1.796 1.496v2.993c0 .898-.719 1.496-1.796 1.496s-1.795-.598-1.795-1.496V99.65c0-.898.718-1.496 1.795-1.496zm18.554-53.266c1.077 0 1.795.622 1.795 1.556v4.668c0 .934-.718 1.556-1.795 1.556-1.078 0-1.796-.622-1.796-1.556v-4.668c0-.934.718-1.556 1.796-1.556zm5.985 0c1.077 0 1.795.622 1.795 1.556v4.668c0 .934-.718 1.556-1.795 1.556-1.078 0-1.796-.622-1.796-1.556v-4.668c0-.934.718-1.556 1.796-1.556zM105.56 128.525h-3.46v-43.82h3.46a1.582 1.582 0 001.572-1.573c0-.299-.086-.592-.246-.844l-11.74-18.45a1.573 1.573 0 00-1.327-.729H62.603l-7.465-7.465v-6.163H70.339a1.58 1.58 0 001.572-1.572c0-.311-.092-.615-.265-.873l-2.773-4.16 2.773-4.16a1.57 1.57 0 00.263-.871 1.58 1.58 0 00-1.571-1.573h-15.2V34.49a1.58 1.58 0 00-1.572-1.572 1.58 1.58 0 00-1.573 1.572v21.154l-7.464 7.465H13.313c-.538 0-1.038.275-1.327.729L.246 82.288c-.16.252-.246.545-.246.844 0 .862.71 1.572 1.572 1.573h3.46v43.82h-3.46a1.58 1.58 0 00-1.533 1.573 1.58 1.58 0 001.533 1.572H105.56a1.58 1.58 0 001.533-1.572 1.58 1.58 0 00-1.533-1.573zM92.777 66.138l9.775 15.473H80.83L65.47 66.138h27.308-.001zM67.3 39.288l-1.74 2.553a1.527 1.527 0 000 1.721l1.74 2.553H54.939v-6.826h12.362l-.001-.001zm-53.405 26.85h27.308l-15.36 15.473H4.12l9.776-15.473h-.001zM8.24 84.617h18.62c.053 0 .105-.003.157-.008l.067-.01c.028-.004.057-.007.086-.013.026-.005.05-.012.076-.019.024-.006.05-.011.074-.018l.073-.026.072-.027c.023-.009.045-.02.068-.03l.072-.036c.022-.011.042-.024.063-.037.023-.013.047-.027.07-.042.023-.015.045-.033.068-.05l.055-.041c.04-.033.08-.068.116-.105l25.817-25.753L79.61 84.155c.037.037.076.072.116.105l.055.041c.023.017.045.035.069.05.022.015.046.028.069.042.02.013.041.026.063.038l.072.034.068.032c.024.01.048.017.072.026l.074.026.072.018.077.02.154.022c.051.005.103.008.155.008h18.621v43.867H65.472v-21.933c0-2.72-2.218-4.933-4.944-4.933H47.062c-2.727 0-4.945 2.213-4.945 4.933v21.933H8.24V84.617zm54.023 23.844h-16.94v-1.593c0-.878.798-1.593 1.778-1.593h13.385c.98 0 1.777.715 1.777 1.593v1.593zm-17.397 3.185h6.867v16.838h-6.867v-16.838zm17.397 0v16.838h-6.867v-16.838h6.867zm-25.43-1.82c.897 0 1.623.704 1.623 1.571v10.055c0 .868-.726 1.571-1.623 1.571h-8.657c-.896 0-1.623-.703-1.623-1.57v-10.056c0-.867.727-1.57 1.623-1.57l8.657-.001zm-15.108 0c.896 0 1.623.704 1.623 1.571v10.055c0 .868-.727 1.571-1.623 1.571h-8.657c-.897 0-1.623-.703-1.623-1.57v-10.056c0-.867.726-1.57 1.623-1.57l8.657-.001zm71.879 0c.896 0 1.623.704 1.623 1.571v10.055c0 .868-.727 1.571-1.623 1.571h-8.657c-.897 0-1.623-.703-1.623-1.57v-10.056c0-.867.726-1.57 1.623-1.57l8.657-.001zm-14.65 0c.896 0 1.623.704 1.623 1.571v10.055c0 .868-.727 1.571-1.624 1.571h-8.657c-.896 0-1.623-.703-1.623-1.57v-10.056c0-.867.727-1.57 1.623-1.57l8.658-.001zm-43.744 8.17H29.8v1.885h5.41v-1.885zm-15.108 0h-5.41v1.885h5.41v-1.885zm71.879 0H86.57v1.885h5.41v-1.885h.001zm-14.65 0H71.92v1.885h5.411v-1.885zm-42.12-5.028H29.8v1.886h5.411v-1.886zm-15.11 0h-5.41v1.886h5.41v-1.886zm71.88 0H86.57v1.886h5.41v-1.886h.001zm-14.65 0H71.92v1.886h5.411v-1.886zm-41.039-22.71c1.194 0 2.164.949 2.164 2.115v11.316c0 .876-.726 1.586-1.623 1.586h-8.657c-.896 0-1.623-.71-1.623-1.586V92.373c0-1.166.97-2.115 2.164-2.115h7.575zm-15.108 0c1.193 0 2.164.949 2.164 2.115v11.316c0 .876-.727 1.586-1.623 1.586h-8.657c-.897 0-1.623-.71-1.623-1.586V92.373c0-1.166.97-2.115 2.164-2.115h7.575zm71.879 0c1.193 0 2.164.949 2.164 2.115v11.316c0 .876-.727 1.586-1.623 1.586h-8.657c-.897 0-1.623-.71-1.623-1.586V92.373c0-1.166.97-2.115 2.164-2.115h7.575zm-14.65 0c1.193 0 2.164.949 2.164 2.115v11.316c0 .876-.727 1.586-1.624 1.586h-8.657c-.896 0-1.623-.71-1.623-1.586V92.373c0-1.166.97-2.115 2.164-2.115h7.576zm-43.203 9.94H29.8v1.905h5.41v-1.905zm-15.108 0h-5.41v1.905h5.41v-1.905zm71.879 0H86.57v1.905h5.41v-1.904l.001-.001zm-14.65 0H71.92v1.905h5.411v-1.905zm-42.12-6.768H29.8v3.596h5.411V93.43zm-15.11 0h-5.41v3.596h5.41V93.43zm71.88 0H86.57v3.596h5.41V93.43h.001zm-14.65 0H71.92v3.596h5.411V93.43zM53.565 73.875c6.311 0 11.445 5.103 11.445 11.377 0 6.273-5.134 11.377-11.445 11.377S42.12 91.525 42.12 85.252c0-6.274 5.135-11.377 11.446-11.377h-.001zm0 3.075c-4.606 0-8.352 3.724-8.352 8.302 0 4.578 3.746 8.302 8.352 8.302 4.605 0 8.352-3.724 8.352-8.302 0-4.578-3.747-8.302-8.352-8.302zm.246 1.476h.006c.865 0 1.577.71 1.58 1.574v5.04c0 .87-.71 1.576-1.585 1.576h-5.076c-.865 0-1.577-.71-1.58-1.575 0-.87.71-1.576 1.585-1.576h3.486V80c0-.87.71-1.575 1.585-1.575l-.001.001zm140.103 33.973c0-.76-.617-1.377-1.377-1.377h-1.376c0-.755-.621-1.377-1.376-1.377-.756 0-1.377.622-1.377 1.377h-22.025a1.383 1.383 0 00-1.376-1.34c-.742 0-1.357.599-1.377 1.34h-1.376c-.741.02-1.34.635-1.34 1.377 0 .741.599 1.356 1.34 1.376h1.376v4.13h-1.376c-.755 0-1.376.621-1.376 1.376 0 .756.621 1.377 1.376 1.377h1.376v1.376h-1.376c-.741.02-1.34.635-1.34 1.377 0 .741.599 1.356 1.34 1.376h1.376v4.13h-23.4v-11.389a13.613 13.613 0 006.67 1.753c7.818-.113 14.07-6.53 13.978-14.348.042-5.427-3-10.431-7.838-12.89a12.563 12.563 0 002.438-7.493c.048-5.924-4.146-11.099-9.951-12.279.626-1.381.95-2.88.95-4.396 0-5.739-4.64-10.499-10.377-10.644-.04 0-.08.005-.12.005-.725-4.673-4.79-8.156-9.519-8.156-4.813 0-8.924 3.607-9.551 8.379a6.904 6.904 0 00-5.588 6.76c0 3.776 3.108 6.883 6.883 6.883h8.024c.125.396.272.784.442 1.163-5.805 1.184-9.997 6.361-9.948 12.285a12.563 12.563 0 002.438 7.493 14.353 14.353 0 00-7.838 12.89c-.092 7.818 6.16 14.236 13.977 14.348a13.613 13.613 0 006.67-1.753v11.389H112.7c-.755 0-1.376.621-1.376 1.376 0 .756.621 1.377 1.376 1.377h79.838c.755 0 1.377-.621 1.377-1.376 0-.756-.622-1.377-1.377-1.377h-1.376v-4.13h1.376c.755 0 1.377-.621 1.377-1.376 0-.756-.622-1.377-1.377-1.377h-1.376v-1.376h1.376c.755 0 1.377-.621 1.377-1.376 0-.756-.622-1.377-1.377-1.377h-1.376v-4.13h1.376c.76 0 1.377-.616 1.377-1.376h-.001zm-68.192-44.526c0 .16.019.317.026.476h-7.543c-2.266 0-4.13-1.864-4.13-4.13s1.864-4.13 4.13-4.13c.755 0 1.376-.621 1.376-1.376v-.017c0-3.768 3.101-6.869 6.869-6.869a6.893 6.893 0 016.789 5.824 10.644 10.644 0 00-7.517 10.222zm11.754 61.044h-2.753v-13.412c.493-.46.953-.954 1.376-1.478a14.47 14.47 0 001.377 1.478v13.412zm.167-17.492l9.065-9.066c.236-.255.367-.589.367-.936 0-.756-.621-1.377-1.377-1.377-.347 0-.681.131-.936.367l-7.286 7.286V93.697l6.48-6.48c.258-.258.403-.608.403-.973a1.376 1.376 0 00-2.35-.973l-4.533 4.533V83.49a1.383 1.383 0 00-1.376-1.34c-.742 0-1.357.599-1.377 1.34v6.313l-4.533-4.533a1.378 1.378 0 00-.936-.367c-.756 0-1.377.621-1.377 1.377 0 .347.131.681.367.936l6.479 6.48v14.002l-7.286-7.286a1.375 1.375 0 00-.954-.384c-.756 0-1.377.621-1.377 1.377 0 .355.137.698.384.954l9.066 9.065a11.032 11.032 0 01-9.257 5.103c-6.298-.11-11.318-5.297-11.224-11.594a11.55 11.55 0 017.803-11.042 1.377 1.377 0 00.534-2.288 9.813 9.813 0 01-2.937-7.054c-.089-5.218 4.098-9.6 9.315-9.747a1.424 1.424 0 001.38-.748 1.375 1.375 0 00-.12-1.435 7.981 7.981 0 01-1.575-4.747c-.067-4.253 3.371-7.811 7.624-7.89 4.253.079 7.691 3.637 7.624 7.89a7.981 7.981 0 01-1.575 4.747c-.302.42-.34.976-.098 1.434.244.465.725.755 1.25.754 5.254.095 9.504 4.488 9.424 9.742a9.813 9.813 0 01-2.937 7.054 1.377 1.377 0 00.533 2.288 11.671 11.671 0 017.805 10.996c0 6.23-4.999 11.414-11.225 11.64a11.032 11.032 0 01-9.257-5.103v.001zm50.764 17.492h-22.024v-4.13h22.024v4.13zm0-6.883h-22.024v-1.376h22.024v1.376zm0-4.13h-22.024v-4.129h22.024v4.13-.001zM555.68 93.838c0 3.58 2.665 6.55 6.121 7.045v6.786H550.58c-.563 0-1.02.455-1.02 1.017 0 5.095 3.814 8.136 10.202 8.136h1.02v3.958c0 1.82-1.543 4.788-2.762 4.788-2.108 0-2.985.975-4.312 2.451a43.54 43.54 0 01-1.51 1.617h-.598c-.563 0-1.02.455-1.02 1.017 0 .562.457 1.017 1.02 1.017h9.692l.045.001c.559 0 1.018-.46 1.018-1.018s-.459-1.018-1.018-1.018l-.045.001h-6.298l.234-.26c1.29-1.435 1.64-1.774 2.792-1.774h15.726c1.153 0 1.504.34 2.802 1.785l.225.249h-6.3c-.563 0-1.02.455-1.02 1.017 0 .562.457 1.017 1.02 1.017h9.692l.045.001c.559 0 1.018-.46 1.018-1.018s-.459-1.018-1.018-1.018l-.045.001h-.597a44.64 44.64 0 01-1.5-1.606c-1.334-1.483-2.214-2.462-4.322-2.462-1.219 0-2.762-2.969-2.762-4.788v-3.958h1.02c6.388 0 10.202-3.041 10.202-8.136 0-.562-.457-1.017-1.02-1.017h-11.223v-6.786c3.457-.495 6.122-3.465 6.122-7.045a1.026 1.026 0 00-1.02-1.017H556.7c-.558 0-1.018.459-1.02 1.017zm14.883 31.73h-9.362c1.033-1.49 1.62-3.475 1.62-4.788v-3.958h6.121v3.958c0 1.313.588 3.298 1.621 4.788zm1.44-10.78H559.76c-2.842 0-7.479-.69-8.093-5.086h28.428c-.614 4.396-5.251 5.086-8.093 5.086h.001zm-8.162-7.119v-6.712h4.081v6.712h-4.081zm2.04 21.967c.564 0 1.021.455 1.021 1.017 0 .562-.457 1.017-1.02 1.017l-.045.001c-.559 0-1.018-.46-1.018-1.018a1.023 1.023 0 011.063-1.017h-.001zm10.713-50.035c6.469 0 11.732 5.246 11.732 11.695v7.627c0 .562-.457 1.017-1.02 1.017-.564 0-1.02-.455-1.02-1.017v-7.627c0-5.327-4.348-9.662-9.692-9.662-4.854 0-9.025 3.56-9.702 8.28a1.02 1.02 0 01-2.019.006c-.718-4.847-4.95-8.286-9.703-8.286-5.344 0-9.692 4.335-9.692 9.662v7.627c0 .562-.456 1.017-1.02 1.017-.563 0-1.02-.455-1.02-1.017v-7.627c0-6.449 5.263-11.695 11.732-11.695 4.659 0 8.797 2.722 10.712 6.708 1.915-3.986 6.053-6.708 10.712-6.708zm-2.653 15.254a5.12 5.12 0 01-4.999 4.068h-6.12a5.12 5.12 0 01-5-4.068h16.119zM555.17 83.668a7.683 7.683 0 017.445 5.868 1.024 1.024 0 01-.995 1.244c-.467 0-.878-.321-.99-.774a5.603 5.603 0 00-5.46-4.304c-3.094 0-5.61 2.51-5.61 5.594a1.025 1.025 0 01-1.021 1.017c-.564 0-1.02-.455-1.02-1.017 0-4.206 3.432-7.628 7.651-7.628zm21.424 0c4.219 0 7.65 3.422 7.65 7.628 0 .562-.456 1.017-1.02 1.017-.563 0-1.02-.455-1.02-1.017 0-3.085-2.516-5.594-5.61-5.594a5.604 5.604 0 00-5.46 4.303 1.023 1.023 0 01-.993.785 1.024 1.024 0 01-.993-1.255 7.684 7.684 0 017.446-5.867zm-354.934 42.98h-3.615l.002-5.342a.874.874 0 00-.442-.761l-3.273-1.85c-.177-.101-.355-.2-.534-.297-1.345-.738-3.475-1.906-4.272-3.952h7.284l3.745 3.71c.242.24.242.24.236.862l-.001.312v6.192c-.001.477.39.87.867.872a.874.874 0 00.867-.872v-6.192l.002-.295c.007-.792.013-1.364-.754-2.122l-3.739-3.704.005-2.908 2.225-.001c1.002-.003 1.726-.005 2.557-1.156l.009-.01 2.894-4.144c.434-.624.6-1.385.464-2.143a2.875 2.875 0 00-1.195-1.871 2.82 2.82 0 00-2.14-.459 2.832 2.832 0 00-1.835 1.2l-1.827 2.681-1.532-.007-1.884-2.984c1.76-1.135 3.112-3.105 3.112-5.45a6.533 6.533 0 00-1.11-3.647c.262-.259.49-.549.666-.874.4-.737.694-1.96-.182-3.596a.869.869 0 00-1.152-.367c-1.7.856-2.982.928-4.148.928-.144 0-.285-.002-.423-.003l-.408-.002c-.67 0-1.45.024-2.233.303-2.193.783-5.548 3.085-3.4 9.701l.006.018c.007.023.016.045.025.067.517 1.233 1.252 2.189 2.179 2.853l-1.187 1.726-5.09 1.754a2.894 2.894 0 00-1.933 2.649v5.252a2.892 2.892 0 002.875 2.875h.013c1.575-.007 2.852-1.306 2.845-2.895l-.012-3.094.49-.169.813 4.14-.676 3.53-.334 1.745-.16.84-4.663 1.57-.014.006-.011.003-2.992 1.11a.872.872 0 00-.513 1.122l2.57 6.991a.868.868 0 001.239.458c1.68-.95 2.71-2.506 2.67-3.883l6.754-2.347c1.01-.354 1.402-.927 1.674-1.495l1.22-2.546 1.486.86c.067.04.138.068.21.088l.333.188-.003 5.701-.01 3.278a.88.88 0 00.254.619.862.862 0 00.614.256h7.64a.87.87 0 00.83-.619c.261-.863.098-1.728-.473-2.503-.837-1.136-2.489-1.9-3.506-1.9h.001zm-2.018-20.503a.867.867 0 00.72-.379l2.086-3.064a1.115 1.115 0 011.56-.29c.25.173.417.438.472.744.053.297-.01.593-.177.832l-2.89 4.136c-.31.429-.313.429-1.152.43l-2.22.003.005-2.42 1.596.008zm-2.49-10.188c0 2.675-2.526 4.749-4.7 4.749-.795 0-1.492-.137-2.096-.414a1.055 1.055 0 00-.076-.036c-.86-.416-1.526-1.124-2.012-2.132.387-.91 1.68-3.538 3.764-3.7.554-.042 2.609-.253 4.32-1.118.519.78.8 1.7.8 2.651zm-9.358-3.093c.403-1.196 1.28-2.02 2.682-2.52.472-.17.982-.203 1.653-.203.129 0 .26 0 .393.002l.438.002c1.199 0 2.515-.097 4.075-.726.112.444.073.834-.115 1.18-.663 1.22-3.067 1.936-5.02 2.086-2.006.155-3.41 1.624-4.28 2.96-.146-1.072-.089-2.003.174-2.781zm-2.728 15.293a.874.874 0 00-.586.829l.014 3.72a1.137 1.137 0 01-1.118 1.143h-.005a1.155 1.155 0 01-1.14-1.13v-3.333a.932.932 0 000-.183v-1.718a1.15 1.15 0 01.758-1.016l5.23-1.803a1.133 1.133 0 011.425.71c.2.595-.113 1.243-.7 1.445l-3.878 1.336zm4.44.315c1.489-.512 2.288-2.152 1.781-3.656a2.87 2.87 0 00-1.66-1.752l.646-.938a7.038 7.038 0 002.18.325c.576 0 1.166-.1 1.743-.288l2.116 3.35-.007 3.917-.005 3.272h-7.184l-.753-3.837 1.143-.393zm-7.544 20.349l-1.877-5.106 1.373-.51 1.404 3.687c.153.402-.113 1.208-.9 1.929zm9.54-6.352c-.15.312-.254.455-.68.603l-6.674 2.32-1.053-2.765 4.285-1.443a.873.873 0 00.577-.662l.758-3.96c1.159 1.614 2.881 2.612 4.055 3.259l-1.269 2.648h.001zm6.536 7.456l.004-1.532h3.617c.423 0 1.575.465 2.112 1.194.09.121.15.234.19.338h-5.923zM122.441 9.936c-.02.154-.034.308-.04.466l-.063 1.864 1.754.615a5.071 5.071 0 013.396 4.763c0 2.8-2.262 5.076-5.047 5.076H97.208c-2.782 0-5.046-2.275-5.046-5.076 0-2.77 2.223-5.03 4.968-5.075.118.017.241.032.364.04l1.917.126.631-1.822c.71-2.047 2.612-3.42 4.736-3.42.247 0 .518.03.882.094l1.767.32.88-1.574c1.35-2.414 3.864-3.916 6.564-3.916 4.145 0 7.52 3.366 7.57 7.52v-.001zm-16.31-4.776a7.486 7.486 0 00-1.319-.133c-3.284 0-6.047 2.126-7.07 5.072-.15-.01-.294-.044-.448-.044-4.151 0-7.519 3.378-7.519 7.54 0 4.164 3.368 7.542 7.519 7.542h25.062c4.15 0 7.519-3.378 7.519-7.541 0-3.294-2.12-6.068-5.057-7.094.005-.153.044-.295.044-.447C124.862 4.502 120.373 0 114.837 0c-3.754 0-6.987 2.096-8.705 5.16h-.001zm389.706 123.472h-1.726v-11.468c0-.84-.679-1.52-1.516-1.52h-17.936V100.93c0-.84-.68-1.52-1.517-1.52h-8.21v-4.974c0-.839-.68-1.519-1.517-1.519h-14.694V78.202c0-.84-.679-1.52-1.516-1.52h-1.87a8.042 8.042 0 00-6.34-6.347v-8.368l.001-.055c0-.833-.685-1.518-1.518-1.518a1.525 1.525 0 00-1.517 1.573v8.368a8.042 8.042 0 00-6.34 6.348h-1.87c-.837 0-1.516.68-1.516 1.519V89.67h-11.452c-.838 0-1.517.68-1.517 1.519v11.468h-14.694c-.838 0-1.517.68-1.517 1.52v24.455h-1.725c-.833 0-1.519.686-1.519 1.519 0 .833.686 1.519 1.519 1.519h100.507c.833 0 1.519-.686 1.519-1.519 0-.833-.686-1.519-1.519-1.519zm-79.88-35.864h16.16v3.59h-16.16v-3.59zm6.584 35.311h-3.427v-1.713c0-.826-.68-1.506-1.506-1.506s-1.506.68-1.506 1.506v1.713h-3.426v-1.713c0-.826-.68-1.506-1.507-1.506-.826 0-1.506.68-1.506 1.506v1.713h-3.426v-1.713c0-.826-.68-1.506-1.506-1.506s-1.506.68-1.506 1.506v1.713h-3.427v-22.743h22.743v22.743zm-6.583-25.137v-3.591h16.159v3.591h-16.16.001zm13.765 25.137h-3.591v-3.591h3.591v3.591zm0-5.985h-3.591v-3.591h3.591v3.591zm0-6.583h-3.591v-3.591h3.591v3.591zm-3.591-5.985v-3.591h6.584v3.59h-6.584v.001zm35.911-10.205h-5.012c-.845 0-1.53.683-1.53 1.526s.685 1.526 1.53 1.526h5.011v3.472h-5.011c-.845 0-1.53.683-1.53 1.526 0 .842.685 1.526 1.53 1.526h5.011v3.471h-5.011c-.845 0-1.53.683-1.53 1.526s.685 1.526 1.53 1.526h5.011v3.472h-5.011c-.845 0-1.53.683-1.53 1.526 0 .842.685 1.525 1.53 1.525h5.011v6.735H452.02v-1.737c0-.842-.685-1.526-1.53-1.526s-1.53.684-1.53 1.526v1.737h-3.481v-3.367c0-.843-.685-1.526-1.53-1.526s-1.53.683-1.53 1.526v3.367h-3.481v-3.367c0-.843-.685-1.526-1.53-1.526-.846 0-1.53.683-1.53 1.526v3.367h-3.482v-16.52h16.564v8.26c0 .843.685 1.526 1.53 1.526s1.53-.683 1.53-1.526v-9.785c0-.843-.685-1.526-1.53-1.526h-1.74v-4.998c0-.842-.685-1.526-1.53-1.526s-1.53.684-1.53 1.526v4.998h-10.023V91.062c0-.843-.685-1.526-1.53-1.526h-5.011v-9.995h1.74c.845 0 1.53-.684 1.53-1.526 0-2.756 2.248-4.998 5.012-4.998 2.763 0 5.01 2.242 5.01 4.998a1.537 1.537 0 001.53 1.526h1.741v18.045c0 .843.686 1.526 1.53 1.526.846 0 1.53-.683 1.53-1.526V95.85h13.294v3.471zm5.787 17.822v11.535h-3.394v-26.334h6.584v13.272h-1.698c-.824 0-1.492.684-1.492 1.527zm22.94 1.36v9.576h-5.095v-4.788c0-.807-.682-1.462-1.523-1.462-.842 0-1.524.655-1.524 1.462v4.788h-3.466v-4.788c0-.807-.682-1.462-1.524-1.462-.841 0-1.523.655-1.523 1.462v4.788h-5.095v-9.576h19.75zm-85.885-1.197c.827 0 1.497.699 1.497 1.56v1.668c0 .861-.67 1.56-1.497 1.56-.826 0-1.496-.699-1.496-1.56v-1.668c0-.861.67-1.56 1.496-1.56zm6.584 0c.826 0 1.496.699 1.496 1.56v1.668c0 .861-.67 1.56-1.496 1.56-.827 0-1.496-.699-1.496-1.56v-1.668c0-.861.67-1.56 1.496-1.56zm6.583 0c.827 0 1.497.699 1.497 1.56v1.668c0 .861-.67 1.56-1.497 1.56-.826 0-1.496-.699-1.496-1.56v-1.668c0-.861.67-1.56 1.496-1.56zm19.152-1.795c.827 0 1.497.698 1.497 1.56v1.667c0 .862-.67 1.56-1.497 1.56-.826 0-1.496-.698-1.496-1.56v-1.667c0-.862.67-1.56 1.496-1.56zm6.584 0c.826 0 1.496.698 1.496 1.56v1.667c0 .862-.67 1.56-1.496 1.56-.827 0-1.496-.698-1.496-1.56v-1.667c0-.862.67-1.56 1.496-1.56zm-38.903-5.985c.827 0 1.497.698 1.497 1.56v1.667c0 .862-.67 1.56-1.497 1.56-.826 0-1.496-.698-1.496-1.56v-1.667c0-.862.67-1.56 1.496-1.56zm6.584 0c.826 0 1.496.698 1.496 1.56v1.667c0 .862-.67 1.56-1.496 1.56-.827 0-1.496-.698-1.496-1.56v-1.667c0-.862.67-1.56 1.496-1.56zm6.583 0c.827 0 1.497.698 1.497 1.56v1.667c0 .862-.67 1.56-1.497 1.56-.826 0-1.496-.698-1.496-1.56v-1.667c0-.862.67-1.56 1.496-1.56zm22.149-7.182c.824 0 1.492.67 1.492 1.496s-.668 1.496-1.492 1.496-1.5-.67-1.5-1.496c0-.827.66-1.496 1.484-1.496h.016zm0-5.985c.824 0 1.492.67 1.492 1.496s-.668 1.496-1.492 1.496-1.5-.67-1.5-1.496c0-.827.66-1.496 1.484-1.496h.016zm0-7.182c.824 0 1.492.67 1.492 1.496s-.668 1.496-1.492 1.496-1.5-.67-1.5-1.496c0-.827.66-1.496 1.484-1.496h.016zm0-6.584c.824 0 1.492.67 1.492 1.496 0 .827-.668 1.497-1.492 1.497s-1.5-.67-1.5-1.497c0-.826.66-1.496 1.484-1.496h.016zm-5.985 0c.824 0 1.492.67 1.492 1.496 0 .827-.668 1.497-1.492 1.497s-1.5-.67-1.5-1.497c0-.826.66-1.496 1.484-1.496h.016zm499.044 29.784v5.008h7.343a9.682 9.682 0 006.753-2.761 9.64 9.64 0 002.768-6.739c0-2.283-.775-4.381-2.14-6.038-1.366-1.657-3.285-2.872-5.462-3.314l-1.218-.258c0-.405.037-.81.037-1.215v-.184a9.51 9.51 0 00-2.804-6.738 9.68 9.68 0 00-6.754-2.762 9.683 9.683 0 00-6.753 2.762 9.516 9.516 0 00-2.805 6.738l.037 1.436-1.218.22c-2.177.443-4.096 1.658-5.461 3.315-1.366 1.657-2.14 3.755-2.14 6.038a9.64 9.64 0 002.767 6.739 9.682 9.682 0 006.753 2.761h7.344v-5.228l-4.724-4.714c-.553-.589-.553-1.51 0-2.062a1.475 1.475 0 012.104 0l4.354 4.345 5.315-3.093c.7-.405 1.586-.147 1.992.553.406.7.185 1.583-.516 1.988l-5.573 3.203h.001zm-39.42 19.293c-.812 0-1.476-.66-1.476-1.466 0-.806.664-1.466 1.475-1.466h14.388v-5.718h-5.128a9.616 9.616 0 01-6.862-2.859 9.494 9.494 0 01-2.877-6.817c0-2.31.848-4.435 2.213-6.121a9.729 9.729 0 014.464-3.042 9.588 9.588 0 012.804-5.865 9.63 9.63 0 0110.698-2.052c.775.33 1.55.77 2.214 1.32 1.07-.734 2.25-1.32 3.541-1.723a12.296 12.296 0 013.616-7.844 12.514 12.514 0 018.817-3.628c3.43 0 6.566 1.392 8.817 3.628a12.292 12.292 0 013.615 7.844 12.71 12.71 0 016.05 4.031 12.427 12.427 0 012.804 7.844c0 3.409-1.402 6.524-3.652 8.76a12.514 12.514 0 01-8.817 3.629h-7.342v8.613h19.368c.812 0 1.44.66 1.44 1.466 0 .806-.628 1.466-1.44 1.466h-58.73zm17.5-2.787h19.08v-8.653h-7.012c-.812.81-1.772 1.51-2.842 1.989a9.667 9.667 0 01-4.096.92h-5.13v5.744zm1.898-13.23l-2.178 1.215v3.203h5.13a6.91 6.91 0 002.768-.589 12.107 12.107 0 01-5.72-3.83v.001zm-3.256-1.533l1.771-1.031a12.536 12.536 0 01-1.292-5.523c.003-2.87.994-5.653 2.805-7.88.11-.11.185-.221.295-.331a6.938 6.938 0 00-1.144-.626 6.657 6.657 0 00-2.694-.553c-1.882 0-3.58.774-4.797 1.989a6.756 6.756 0 00-1.993 4.786v1.363l-1.18.22a6.92 6.92 0 00-3.913 2.394c-.96 1.141-1.513 2.651-1.513 4.271 0 1.878.775 3.572 1.993 4.787a6.788 6.788 0 004.798 1.988h5.13v-3.424l-3.433-3.424c-.553-.553-.553-1.51 0-2.062.59-.59 1.513-.59 2.104 0l3.063 3.056zm-538.116-1.743v5.008h7.344a9.682 9.682 0 006.753-2.761 9.64 9.64 0 002.768-6.739c0-2.283-.775-4.381-2.14-6.038-1.366-1.657-3.285-2.872-5.462-3.314l-1.218-.258c0-.405.037-.81.037-1.215v-.184a9.516 9.516 0 00-2.805-6.738 9.683 9.683 0 00-6.753-2.762 9.683 9.683 0 00-6.753 2.762 9.516 9.516 0 00-2.805 6.738l.037 1.436-1.218.22c-2.177.443-4.096 1.658-5.461 3.315-1.366 1.657-2.14 3.755-2.14 6.038a9.64 9.64 0 002.767 6.739 9.682 9.682 0 006.753 2.761h7.344v-5.228l-4.724-4.714c-.553-.589-.553-1.51 0-2.062a1.475 1.475 0 012.104 0l4.354 4.345 5.315-3.093c.7-.405 1.586-.147 1.992.553.406.7.185 1.583-.516 1.988l-5.573 3.203zm-39.42 19.293c-.811 0-1.475-.66-1.475-1.466 0-.806.664-1.466 1.475-1.466h14.388v-5.718h-5.128a9.616 9.616 0 01-6.862-2.859 9.494 9.494 0 01-2.877-6.817c0-2.31.848-4.435 2.213-6.121a9.729 9.729 0 014.464-3.042 9.588 9.588 0 012.804-5.865 9.63 9.63 0 0110.698-2.052c.775.33 1.55.77 2.214 1.32 1.07-.734 2.25-1.32 3.541-1.723a12.296 12.296 0 013.616-7.844 12.514 12.514 0 018.817-3.628c3.43 0 6.566 1.392 8.817 3.628a12.292 12.292 0 013.615 7.844 12.71 12.71 0 016.05 4.031 12.427 12.427 0 012.804 7.844c0 3.409-1.402 6.524-3.652 8.76a12.514 12.514 0 01-8.817 3.629h-7.342v8.613h19.368c.812 0 1.439.66 1.439 1.466 0 .806-.627 1.466-1.439 1.466h-58.731zm17.501-2.787h19.08v-8.653h-7.012c-.812.81-1.772 1.51-2.842 1.989a9.667 9.667 0 01-4.096.92h-5.13v5.744zm1.897-13.23l-2.177 1.215v3.203h5.13a6.905 6.905 0 002.767-.589 12.107 12.107 0 01-5.72-3.83v.001zm-3.255-1.533l1.77-1.031a12.548 12.548 0 01-1.29-5.523c0-2.983 1.07-5.744 2.804-7.88.11-.11.184-.221.295-.331a6.938 6.938 0 00-1.144-.626 6.657 6.657 0 00-2.694-.553c-1.882 0-3.58.774-4.797 1.989a6.756 6.756 0 00-1.993 4.786v1.363l-1.18.22a6.92 6.92 0 00-3.913 2.394c-.96 1.141-1.513 2.651-1.513 4.271 0 1.878.775 3.572 1.993 4.787a6.788 6.788 0 004.798 1.988h5.13v-3.424l-3.433-3.424c-.553-.553-.553-1.51 0-2.062.59-.59 1.513-.59 2.104 0l3.063 3.056zm150.716 16.037h4.374a8.922 8.922 0 01-3.936-7.397c0-4.913 3.985-8.91 8.882-8.91.933 0 1.833.146 2.679.415l.666-1.62h-3.128a2.888 2.888 0 01-2.867-2.876 2.888 2.888 0 012.867-2.876h1.078a1.607 1.607 0 01-.006-.12v-1.182c0-.96.778-1.742 1.736-1.742h2.895l4.622-2.522.766-.767a.752.752 0 011.066 0 .761.761 0 010 1.07l-.843.844a.762.762 0 01-.173.13l-4.886 2.666a.753.753 0 01-.36.092h-3.087a.23.23 0 00-.229.229v.544a2.15 2.15 0 013.245.445l5.914-2.731 3.898-3.145a.755.755 0 011.006.055l.438.44a4.56 4.56 0 002.324-3.986c0-.322-.033-.644-.1-.959a1.41 1.41 0 00-.889-.312 1.4 1.4 0 00-1 .412l-2.845 2.855a.752.752 0 01-1.067 0 .761.761 0 010-1.07l.29-.29a4.716 4.716 0 01-4.36-4.686v-3.451c0-2.43 1.927-4.126 4.684-4.126 2.802 0 4.684 1.614 4.684 4.017v.114h2.55a.76.76 0 01.756.756.76.76 0 01-.756.757h-2.55v1.933c0 .431-.059.859-.176 1.274.642.046 1.25.3 1.732.73.035.032 9.782 9.805 9.782 9.805a2.954 2.954 0 010 4.145l-5.033 5.048 1.604 1.674a8.826 8.826 0 015.587-1.988c4.898 0 8.883 3.996 8.883 8.91a8.922 8.922 0 01-3.937 7.396h2.424c.416 0 .754.34.754.757v.001c0 .414-.34.754-.754.755h-49.204a.759.759 0 01-.754-.755v-.001c0-.418.337-.757.754-.757zm20.479-36.995a3.2 3.2 0 003.175 3.186c.332 0 .652-.051.952-.146v-4.973h-4.127v1.933zm6.351-3.559c0-.588-.229-2.505-3.176-2.505-1.465 0-3.175.684-3.175 2.614v.004h6.351v-.113zm0 1.626h-.716v3.85c.053-.043.107-.083.163-.122.349-.511.553-1.13.553-1.795v-1.933zm-13.283 15.872a.66.66 0 00-.657.657c0 .36.297.657.657.657a.66.66 0 00.657-.657.66.66 0 00-.657-.657zm5.532.175c0-.28.044-.551.124-.805l-3.522 1.626a2.173 2.173 0 01-2.134 1.83c-.968 0-1.79-.64-2.064-1.521h-1.946a1.37 1.37 0 00-1.363 1.364 1.37 1.37 0 001.363 1.363h12.526l-2.034-1.815a2.663 2.663 0 01-.95-2.042zm1.508 0c-.001.352.16.685.435.904l3.31 2.953h1.92v-.445l-.964-.968a.76.76 0 01-.219-.533.76.76 0 01.752-.758h.431v-2.306h-4.515c-.634 0-1.15.517-1.15 1.153zm7.556 5.37h-2.115l1.914 1.707v-.514c.001-.069.012-.58.201-1.194v.001zm-1.521 9.575h.69a1.837 1.837 0 00-1.41-.661 1.86 1.86 0 00-1.849 1.852c0 .844.578 1.587 1.396 1.795a1.26 1.26 0 01-.084-.45v-1.275c0-.695.564-1.26 1.257-1.26v-.001zm.251 1.513v.77h4.453v-.77h-4.453zm2.577-9.881v8.151h1.631l.601-7.258-1.974-1.98a3.067 3.067 0 00-.258 1.087zm1.764-5.905l-1.917-1.923h-1.537v3.803h1.58l1.874-1.88zm-5.623-5.64l-2.853 2.302h3.899a.75.75 0 01.37-.098h.782l-2.198-2.204zm4.828-4.482a6.06 6.06 0 01-2.704 4.473l4.565 4.58 3.582-3.594-5.443-5.46v.001zm8.19 10.221c.265-.266.414-.627.412-1.003 0-.38-.146-.736-.412-1.002l-1.681-1.687-6.736 6.757 2.68 2.69 5.737-5.755zm-5.032 7.187l-.17.172a.747.747 0 01-.28.176l-.533 6.422h.39a8.894 8.894 0 012.177-5.117l-1.584-1.653zm2.633 2.749a7.383 7.383 0 00-1.712 4.02h.665a6.716 6.716 0 011.506-3.542l-.459-.478zm6.168 5.01c-.137.323-.461.524-.845.524h-4.85c.366 2.522 2.536 4.466 5.151 4.466 2.871 0 5.207-2.343 5.207-5.223s-2.336-5.223-5.207-5.223a5.17 5.17 0 00-3.024.976l3.359 3.505c.266.278.346.651.209.975zm-2.314-.989l-2.341-2.443a5.212 5.212 0 00-1.04 2.443h3.381zm9.145.756c0-4.079-3.308-7.397-7.375-7.397-1.71 0-3.284.589-4.536 1.572l.459.479a6.663 6.663 0 014.077-1.39c3.703 0 6.715 3.022 6.715 6.736s-3.012 6.736-6.715 6.736c-3.447 0-6.295-2.62-6.671-5.98h-.665c.379 3.725 3.524 6.641 7.336 6.641 4.067 0 7.375-3.318 7.375-7.397zm-12.317 7.397a8.926 8.926 0 01-3.908-6.64h-.15v1.24c0 .69-.567 1.258-1.257 1.26h-3.553a3.331 3.331 0 01-2.122.76 3.38 3.38 0 01-3.354-3.364c0-.711.225-1.405.644-1.98l-.56-.584a.761.761 0 01.021-1.07.752.752 0 011.066.022l.613.639a3.333 3.333 0 013.61.304v-4.367l-4.183-3.732h-6.897l4.538 4.736c.289.3.28.78-.021 1.069-.3.29-.777.28-1.066-.021l-5.542-5.784h-.475l-.904 2.198a8.932 8.932 0 014.81 7.917 8.922 8.922 0 01-3.936 7.397h22.626zM516 122.76a7.418 7.418 0 00-3.88-6.512l-.254.616a6.75 6.75 0 013.474 5.896c0 3.714-3.012 6.736-6.715 6.736-3.702 0-6.715-3.022-6.715-6.736 0-.785.135-1.555.4-2.29a.755.755 0 011.463.258.758.758 0 01-.046.258 5.208 5.208 0 00-.309 1.774c0 2.88 2.336 5.223 5.207 5.223s5.207-2.343 5.207-5.223a5.234 5.234 0 00-2.546-4.487l-1.964 4.776a.755.755 0 01-.697.466.758.758 0 01-.697-1.043l1.965-4.777a5.186 5.186 0 00-4.272.802.752.752 0 01-1.05-.18.762.762 0 01.178-1.054 6.679 6.679 0 015.723-.977l.253-.615a7.321 7.321 0 00-2.1-.308c-4.066 0-7.374 3.319-7.374 7.397 0 4.08 3.308 7.398 7.374 7.398S516 126.839 516 122.76z" fill="#fff"/><g fill="#fff"><path d="M777.824 112.673a6.736 6.736 0 00-3.68 1.091 7.859 7.859 0 00-6.422-3.326c-4.339 0-7.856 3.502-7.856 7.823-3.719 0-6.734 3.002-6.734 6.704 0 3.703 3.015 6.705 6.734 6.705h25.814c3.719 0 6.734-3.002 6.734-6.705 0-3.702-3.015-6.704-6.734-6.704-.405 0-.805.037-1.198.11-.488-3.225-3.284-5.698-6.658-5.698zm7.856 7.822c2.479 0 4.49 2.002 4.49 4.47s-2.011 4.47-4.49 4.47h-25.814c-2.479 0-4.49-2.002-4.49-4.47s2.011-4.47 4.49-4.47c.315 0 .641.041.998.122a1.125 1.125 0 001.35-1.3 5.591 5.591 0 01-.103-1.056c0-3.087 2.512-5.588 5.611-5.588a5.616 5.616 0 015.092 3.25 1.127 1.127 0 001.817.317 4.486 4.486 0 013.193-1.332c2.479 0 4.489 2.002 4.489 4.47 0 .021-.004.057-.016.15a5.29 5.29 0 00-.03.253 1.128 1.128 0 001.118 1.214c.159 0 .316-.034.461-.099a4.462 4.462 0 011.834-.4v-.001z"/><path d="M726.499 131.67h64.798c.617 0 1.117-.483 1.117-1.08 0-.596-.5-1.08-1.117-1.08h-64.798c-.617 0-1.117.484-1.117 1.08 0 .597.5 1.08 1.117 1.08z"/><path d="M773.314 130.55v-7.836c0-.619-.484-1.12-1.082-1.12-.597 0-1.08.501-1.08 1.12v7.836c0 .619.483 1.12 1.08 1.12.598 0 1.082-.501 1.082-1.12z"/><path d="M777.146 124.084l-5.663 5.655a1.133 1.133 0 000 1.6c.442.441 1.16.441 1.602 0l5.663-5.655a1.133 1.133 0 000-1.6 1.139 1.139 0 00-1.602 0z"/><path d="M765.717 125.684l5.663 5.655a1.135 1.135 0 001.934-.8c0-.3-.12-.588-.332-.8l-5.663-5.655a1.133 1.133 0 00-1.602 1.6zm24.452-36.297c0 6.81-5.53 12.332-12.35 12.332-6.82 0-12.35-5.522-12.35-12.332 0-6.81 5.53-12.332 12.35-12.332 6.82 0 12.35 5.521 12.35 12.332zm2.245 0c0-8.049-6.535-14.574-14.596-14.574-8.06 0-14.595 6.525-14.595 14.574 0 8.048 6.535 14.574 14.595 14.574s14.596-6.526 14.596-14.574z"/><path d="M773.651 91.41l3.46 3.238c.46.419 1.171.419 1.631 0 .45-.421.45-1.105 0-1.526l-3.46-3.24a1.214 1.214 0 00-1.63 0 1.03 1.03 0 000 1.528h-.001z"/><path d="M780.355 89.883l-3.46 3.239a1.032 1.032 0 000 1.526 1.214 1.214 0 001.63 0l3.46-3.238c.45-.422.45-1.106 0-1.527a1.214 1.214 0 00-1.63 0z"/><path d="M776.917 93.92v20.081c0 .616.484 1.116 1.082 1.116.597 0 1.08-.5 1.08-1.116v-20.08c0-.616-.483-1.116-1.08-1.116-.598 0-1.082.5-1.082 1.116v-.001zm-44.662 37.75h13.283c.611 0 1.107-.51 1.107-1.14v-4.558c0-.63-.496-1.14-1.107-1.14h-13.283c-.611 0-1.107.51-1.107 1.14v4.558c0 .63.496 1.14 1.107 1.14zm1.107-4.558h11.07v2.279h-11.07v-2.28.001z"/><path d="M741.11 115.117h-4.427a1.115 1.115 0 00-1.107 1.112c0 4.813-1.52 8.898-3.32 8.898v2.225h13.282v-2.225c-1.8 0-3.32-4.085-3.32-8.898v-.002c0-.608-.5-1.109-1.108-1.11zm4.428 12.235c1.476 0 1.476-2.225 0-2.225h-3.53c.892 1.389 2.073 2.225 3.53 2.225zm-13.283-2.225c-1.476 0-1.476 2.225 0 2.225 1.457 0 2.638-.836 3.53-2.225h-3.53zm9.754 0h-6.225c1.183-1.843 1.855-4.659 1.983-7.786h2.26c.127 3.127.8 5.943 1.982 7.786z"/><path d="M731.148 109.404c0 4.348 3.469 7.872 7.749 7.872 4.28 0 7.748-3.524 7.748-7.872 0-.621-.496-1.125-1.107-1.125h-13.283c-.611 0-1.107.504-1.107 1.125zm13.172 1.124c-.512 2.567-2.746 4.499-5.423 4.499-2.678 0-4.912-1.932-5.424-4.499h10.847z"/><path d="M739.798 109.319v-7.837c0-.618-.484-1.12-1.082-1.12-.597 0-1.08.502-1.08 1.12v7.837c0 .618.483 1.12 1.08 1.12.598 0 1.082-.502 1.082-1.12z"/><path d="M728.686 101.75c0-2.501 1.987-4.524 4.444-4.524 2.458 0 4.445 2.023 4.445 4.524 0 .625.498 1.131 1.111 1.131.614 0 1.112-.506 1.112-1.13 0-3.751-2.983-6.786-6.668-6.786s-6.667 3.035-6.667 6.785c0 .625.498 1.131 1.111 1.131.614 0 1.112-.506 1.112-1.13v-.001z"/><path d="M739.858 101.75c0-2.501 1.987-4.524 4.444-4.524 2.458 0 4.445 2.023 4.445 4.524 0 .625.498 1.131 1.111 1.131.614 0 1.112-.506 1.112-1.13 0-3.751-2.983-6.786-6.668-6.786s-6.667 3.035-6.667 6.785c0 .625.498 1.131 1.111 1.131.614 0 1.112-.506 1.112-1.13v-.001z"/></g><path d="M323.921 52.46h-7.291a1.39 1.39 0 00-1.384 1.384 1.39 1.39 0 001.384 1.384h7.29c.05 0 .092.04.092.092v73.583h-13.94V82.024a2.321 2.321 0 00-2.306-2.306h-.368v-24.49h2.92l.037.001a1.39 1.39 0 001.384-1.384 1.39 1.39 0 00-1.384-1.384h-2.957v-3.563c0-.502-.27-.942-.67-1.184l-9.048-9.86a2.314 2.314 0 00-1.695-.747 2.36 2.36 0 00-1.7.74c-1.74 1.741-3.355 3.63-5.026 5.438l-3.391 3.666c-.28.304-.585.597-.848.917-.533.652-.452 1.493-.452 2.3v29.55h-.368a2.318 2.318 0 00-2.306 2.306v48.263c0 .764.619 1.383 1.384 1.383h42.119c.765 0 1.384-.619 1.384-1.383V55.32a2.878 2.878 0 00-2.86-2.86zM295.98 40.095l6.808 7.42h-13.671l6.863-7.42zm-8.643 10.188h17.294V79.72h-17.294V50.282v.001zm12.353 78.621h-6.538V120.6h6.538v8.304zM247.228 40.1c.76 0 1.375.616 1.375 1.376v4.867h5.164a2.307 2.307 0 012.292 2.295v6.256h1.041a2.308 2.308 0 012.292 2.296v6.226h.555a2.306 2.306 0 012.291 2.295v11.913c0 .754-.621 1.375-1.375 1.375a1.382 1.382 0 01-1.375-1.375V66.171h-24.52v62.745h9.654v-15.338h-5.13c-.76 0-1.375-.617-1.375-1.377s.615-1.377 1.374-1.377h5.13v-4.228h-5.13c-.76 0-1.374-.616-1.374-1.377s.615-1.378 1.374-1.378h5.13v-4.227h-5.13c-.76 0-1.374-.617-1.374-1.378 0-.76.615-1.377 1.374-1.377h5.13V92.63h-5.13c-.76 0-1.374-.617-1.374-1.378 0-.76.615-1.377 1.374-1.377h5.238a2.615 2.615 0 012.97-1.843l11.79 2.128v-6.08l-.001-.052c0-.755.621-1.376 1.376-1.376.755 0 1.376.621 1.376 1.376l-.001.052v6.576l12.718 2.296a2.622 2.622 0 012.149 2.576v34.763c0 .762-.616 1.378-1.375 1.378h-29.734c-.036 0-.07-.003-.105-.005l.004.005h-12.303c-.76 0-1.375-.616-1.375-1.378v-64.58a2.307 2.307 0 012.291-2.296h.556V57.19a2.307 2.307 0 012.291-2.296h1.042v-6.256a2.308 2.308 0 012.291-2.295h5.164v-4.867c0-.76.616-1.376 1.375-1.376zm13.977 70.775h-.682c-2.96 0-5.369 2.413-5.369 5.378v12.663h11.42v-12.663c0-2.965-2.408-5.378-5.369-5.378zm-13.833-20.102v38.143h5.033v-12.663c0-4.484 3.642-8.132 8.118-8.132h.682c4.476 0 8.118 3.648 8.118 8.132v12.663h5.033V95.644l-26.984-4.871zm59.932-8.287v46.417h-4.846v-8.764a2.322 2.322 0 00-2.308-2.307h-7.461a2.321 2.321 0 00-2.307 2.307v8.764h-5.72V82.486h22.642zm11.522 28.237c.757 0 1.372.67 1.372 1.496s-.615 1.496-1.372 1.496h-3.84c-.758 0-1.372-.67-1.372-1.496 0-.827.614-1.496 1.372-1.496h3.84zm-57.58-8.38c.825 0 1.496.629 1.496 1.405v1.98c0 .774-.671 1.404-1.497 1.404-.826 0-1.496-.63-1.496-1.405v-1.98c0-.774.67-1.403 1.496-1.403l.001-.001zm5.985 0c.826 0 1.496.629 1.496 1.405v1.98c0 .774-.67 1.404-1.496 1.404-.827 0-1.497-.63-1.497-1.405v-1.98c0-.774.67-1.403 1.497-1.403v-.001zm-12.57 0c.827 0 1.497.629 1.497 1.405v1.98c0 .774-.67 1.404-1.496 1.404-.827 0-1.496-.63-1.496-1.405v-1.98c0-.774.67-1.403 1.496-1.403l-.001-.001zm64.165-.598c.757 0 1.372.67 1.372 1.496 0 .827-.615 1.497-1.372 1.497h-3.84c-.758 0-1.372-.67-1.372-1.497 0-.825.614-1.496 1.372-1.496h3.84zm-51.595-6.583c.826 0 1.496.628 1.496 1.404v1.98c0 .775-.67 1.404-1.496 1.404-.827 0-1.497-.63-1.497-1.405v-1.98c0-.774.67-1.403 1.497-1.403zm-5.986 0c.826 0 1.497.628 1.497 1.404v1.98c0 .775-.671 1.404-1.497 1.404-.826 0-1.496-.63-1.496-1.405v-1.98c0-.774.67-1.403 1.496-1.403zm-6.583 0c.826 0 1.496.628 1.496 1.404v1.98c0 .775-.67 1.404-1.496 1.404-.827 0-1.496-.63-1.496-1.405v-1.98c0-.774.67-1.403 1.496-1.403zm64.164-1.796c.757 0 1.372.67 1.372 1.497 0 .826-.615 1.496-1.372 1.496h-3.84c-.758 0-1.372-.67-1.372-1.496 0-.827.614-1.497 1.372-1.497h3.84zm0-8.977c.757 0 1.372.669 1.372 1.495 0 .827-.615 1.497-1.372 1.497h-3.84c-.758 0-1.372-.67-1.372-1.497 0-.826.614-1.495 1.372-1.495h3.84zm-71.219-1.796c.756 0 1.369.67 1.369 1.496 0 .778-.543 1.417-1.237 1.49l-.132.007h-8.035c-.756 0-1.369-.67-1.369-1.497 0-.777.543-1.417 1.237-1.49l.132-.006h8.035zm7.188 0c.752 0 1.363.67 1.363 1.496 0 .778-.54 1.417-1.232 1.49l-.131.007h-2.063c-.752 0-1.362-.67-1.362-1.497 0-.777.54-1.417 1.231-1.49l.131-.006h2.063zm64.03-7.182c.758 0 1.373.67 1.373 1.496 0 .827-.615 1.497-1.372 1.497h-3.84c-.758 0-1.372-.67-1.372-1.497 0-.825.614-1.496 1.372-1.496h3.84-.001zm-71.218 0c.756 0 1.369.67 1.369 1.496 0 .778-.543 1.417-1.237 1.49l-.132.007h-8.035c-.756 0-1.369-.67-1.369-1.497 0-.778.543-1.417 1.237-1.49l.132-.006h8.035zm7.188 0c.752 0 1.363.67 1.363 1.496 0 .778-.54 1.417-1.232 1.49l-.131.007h-2.063c-.752 0-1.362-.67-1.362-1.497 0-.778.54-1.417 1.231-1.49l.131-.006h2.063zm46.55-5.985c.826 0 1.496.653 1.496 1.459v2.469c-.001.806-.67 1.459-1.496 1.459-.827 0-1.496-.653-1.496-1.46v-2.468c0-.806.669-1.459 1.496-1.459zm-5.387 0c.827 0 1.497.653 1.497 1.459v2.469c0 .806-.67 1.459-1.497 1.459-.826 0-1.496-.653-1.496-1.46v-2.468c0-.806.67-1.459 1.496-1.459zm-5.386 0c.826 0 1.496.653 1.496 1.459v2.469c0 .806-.67 1.459-1.496 1.459s-1.496-.653-1.496-1.46v-2.468c0-.806.67-1.459 1.496-1.459zm-42.965-1.197c.756 0 1.369.669 1.369 1.496 0 .778-.543 1.417-1.237 1.49l-.132.007h-8.035c-.756 0-1.369-.67-1.369-1.497 0-.778.543-1.417 1.237-1.49l.132-.006h8.035zm7.188 0c.752 0 1.363.669 1.363 1.496 0 .778-.54 1.417-1.232 1.49l-.131.007h-2.063c-.752 0-1.362-.67-1.362-1.497 0-.778.54-1.417 1.231-1.49l.131-.006h2.063zm64.03-1.795c.758 0 1.373.669 1.373 1.496 0 .826-.615 1.496-1.372 1.496h-3.84c-.758 0-1.372-.67-1.372-1.496 0-.827.614-1.496 1.372-1.496h3.84-.001zm-17.48-4.788c.826 0 1.496.652 1.496 1.458v2.47c-.001.805-.67 1.458-1.496 1.458-.827 0-1.496-.653-1.496-1.459v-2.469c0-.805.669-1.458 1.496-1.458zm-5.387 0c.827 0 1.497.652 1.497 1.458v2.47c0 .805-.67 1.458-1.497 1.458-.826 0-1.496-.653-1.496-1.459v-2.469c0-.805.67-1.458 1.496-1.458zm-5.386 0c.826 0 1.496.652 1.496 1.458v2.47c0 .805-.67 1.458-1.496 1.458s-1.496-.653-1.496-1.459v-2.469c0-.805.67-1.458 1.496-1.458zm-33.93-3.997h-18.828v5.767h18.828v-5.767zm62.184.406c.757 0 1.372.669 1.372 1.496 0 .826-.615 1.496-1.372 1.496h-3.84c-.758 0-1.372-.67-1.372-1.496 0-.827.614-1.496 1.372-1.496h3.84zm-17.481-4.19c.826 0 1.496.653 1.496 1.459v2.47c-.001.805-.67 1.458-1.496 1.458-.827 0-1.496-.653-1.496-1.459v-2.47c0-.805.669-1.458 1.496-1.458zm-5.387 0c.827 0 1.497.653 1.497 1.459v2.47c0 .805-.67 1.458-1.497 1.458-.826 0-1.496-.653-1.496-1.459v-2.47c0-.805.67-1.458 1.496-1.458zm-5.386 0c.826 0 1.496.653 1.496 1.459v2.47c0 .805-.67 1.458-1.496 1.458s-1.496-.653-1.496-1.459v-2.47c0-.805.67-1.458 1.496-1.458zm-37.263-4.768h-12.162v5.767h12.162v-5.767zm471.364 74.269a1.908 1.908 0 00-1.798-1.27h-1.538l-2.277-4v-6.853a2.561 2.561 0 00-2.544-2.553v-8.298c.13-3.749-2.793-6.892-6.528-7.022a7.272 7.272 0 00-.467 0c-4.372 0-6.868 3.605-6.995 6.997 0 .009.005.016.005.025h-.005v8.298a2.56 2.56 0 00-2.543 2.553v6.852l-2.278 4h-1.538a1.916 1.916 0 00-1.907 1.907 1.914 1.914 0 001.266 1.804 2.538 2.538 0 00.217 3.556c.375.333.84.546 1.337.611l12.355 1.691a.627.627 0 00.173 0l12.355-1.69a2.533 2.533 0 002.184-2.501c0-.613-.224-1.206-.629-1.667a1.92 1.92 0 001.155-2.44zm-15.152-28.72c3.02-.14 5.583 2.204 5.723 5.236.008.17.008.34 0 .51h-1.271a3.205 3.205 0 01-3.18-3.192.64.64 0 00-1.085-.451 10.246 10.246 0 01-5.839 2.93 5.735 5.735 0 015.652-5.032v-.001zm-1.272 14.683v-2.73c.415.113.842.173 1.272.176.43-.003.858-.064 1.272-.18v2.734c0 .352.285.638.636.638h1.272v.816l-3.18 1.064-3.18-1.064v-.816h1.273a.64.64 0 00.635-.638zm-3.693-8.478a11.498 11.498 0 005.151-2.383 4.472 4.472 0 004.266 3.2h.277c-.795 2.142-2.81 3.83-4.729 3.83-2.208 0-4.439-2.148-4.965-4.647zm7.509 7.84v-2.608a7.563 7.563 0 003.18-3.491v6.098h-3.181l.001.001zm-8.267-6.098a7.503 7.503 0 003.18 3.493v2.604h-3.18v-6.097zm1.272 7.374v1.277c0 .274.175.518.435.605l3.815 1.277a.632.632 0 00.403 0l3.815-1.277a.64.64 0 00.435-.605v-1.277h1.729l-2.862 11.49h-6.637l-2.862-11.49h1.729zm.928 12.767h7.046l2.555 2.991-6.078.833-6.078-.83 2.555-2.994zm-4.052 2.787l-1.173-.16 3.984-4.445.254 1.015-3.065 3.59zm12.09-3.59l.255-1.015 3.983 4.444-1.175.16-3.063-3.59v.001zm-18.505 2.08c0-.353.285-.64.636-.64h1.908a.636.636 0 00.552-.318l2.544-4.469a.647.647 0 00.084-.319v-7.021c0-.522.316-.991.798-1.185l1.166 4.682 1.165 4.682-4.684 5.226h-3.533a.64.64 0 01-.636-.637v-.002.001zm13.99 6.377l-12.269-1.68a1.265 1.265 0 01-1.079-1.413 1.26 1.26 0 011.418-1.082l4.522.62 7.186.983 3.404 2.136-3.182.436zm12.27-1.68l-7.119.974-3.325-2.086 5.578-.766 4.521-.619a1.261 1.261 0 011.43 1.243v.007a1.266 1.266 0 01-1.086 1.247h.001zm1.084-4.06h-3.532l-4.686-5.226 2.332-9.364c.483.194.8.664.799 1.186v7.021a.63.63 0 00.084.32l2.544 4.468c.113.198.324.32.552.319h1.907c.35 0 .638.288.638.638a.641.641 0 01-.638.639v-.001zm2.688-50.245a4.358 4.358 0 013.347.338c.407.22.77.496 1.082.82a4.397 4.397 0 014.426-1.158c.443.152.743.571.743 1.039a1.104 1.104 0 01-1.373 1.063 2.22 2.22 0 00-2.75 1.482c-.14.46-.567.776-1.048.776-.48 0-.907-.316-1.047-.776a2.2 2.2 0 00-1.069-1.312 2.19 2.19 0 00-1.68-.17 1.104 1.104 0 01-1.373-1.063c0-.468.3-.887.743-1.039h-.001zm22.864-13.427a4.36 4.36 0 013.348-.338 1.1 1.1 0 01.734 1.036 1.103 1.103 0 01-1.365 1.065 2.19 2.19 0 00-1.68.17c-.52.28-.9.746-1.069 1.312a1.097 1.097 0 01-1.048.778c-.481 0-.909-.317-1.048-.778a2.2 2.2 0 00-1.069-1.312 2.19 2.19 0 00-1.68-.17 1.104 1.104 0 01-1.373-1.063c0-.468.3-.887.743-1.039a4.358 4.358 0 013.347.339c.4.215.764.491 1.08.817.316-.326.68-.602 1.08-.817zm-206.604 3.851a4.36 4.36 0 013.348.338c.406.22.77.496 1.082.82a4.397 4.397 0 014.426-1.158 1.1 1.1 0 01.746 1.04 1.104 1.104 0 01-1.377 1.062 2.22 2.22 0 00-2.75 1.482c-.14.46-.567.776-1.048.776-.48 0-.907-.316-1.047-.776a2.2 2.2 0 00-1.069-1.312 2.19 2.19 0 00-1.68-.17 1.104 1.104 0 01-1.373-1.063c0-.468.3-.887.743-1.039h-.001zm-43.569-6.245a4.36 4.36 0 013.348-.338 1.1 1.1 0 01.734 1.036 1.103 1.103 0 01-1.365 1.065 2.19 2.19 0 00-1.68.17c-.52.28-.9.746-1.069 1.312a1.097 1.097 0 01-1.048.778c-.481 0-.909-.317-1.048-.778a2.2 2.2 0 00-1.069-1.312 2.19 2.19 0 00-1.68-.17 1.104 1.104 0 01-1.373-1.063c0-.468.3-.887.743-1.039a4.358 4.358 0 013.347.339c.4.215.764.491 1.08.817.316-.326.68-.602 1.08-.817zM595.599 128.828V44.161h8.546a20.783 20.783 0 00-1.754 9.286c.453 11 9.505 19.815 20.499 19.975 11.622.17 21.131-9.25 21.131-20.85 0-2.99-.633-5.836-1.771-8.41h42.941v84.666h-3.707v-25.073c0-.884-.717-1.602-1.6-1.602h-27.542c-.884 0-1.6.718-1.6 1.602v25.073h-55.143zm98.66 1.422v-.002c0-.779-.641-1.42-1.42-1.42h-4.448V44.16h4.268c.878 0 1.6-.722 1.6-1.6v-7.42c0-.884-.716-1.602-1.6-1.602h-10.215a1.61 1.61 0 00-1.602 1.603 1.61 1.61 0 001.602 1.602h8.616v4.214h-50.577a20.994 20.994 0 00-3.747-4.214h38.241c.878 0 1.6-.722 1.6-1.6v-.004c0-.878-.722-1.6-1.6-1.6h-43.279a20.684 20.684 0 00-8.5-1.818c-3.027 0-5.904.65-8.501 1.818H588.13c-.883 0-1.6.717-1.6 1.602v7.418c0 .885.717 1.602 1.6 1.602h4.269v84.667h-2.839c-.785 0-1.43.646-1.43 1.431 0 .784.645 1.43 1.43 1.43l103.278-.019h.001c.779 0 1.42-.641 1.42-1.42zM589.173 40.312v-3.965h19.828a20.173 20.173 0 00-3.728 3.965h-16.1zm34.038 29.742c-9.658 0-17.515-7.857-17.515-17.515 0-9.657 7.857-17.514 17.515-17.514 9.657 0 17.514 7.857 17.514 17.514 0 9.658-7.857 17.515-17.514 17.515zm30.732 35.029h23.793v3.965h-23.793v-3.965zm24.454 6.609v17.184h-10.574v-17.184h10.574zm-14.54 0v17.184h-10.575v-17.184h10.575zm-35.923-9.253c.859 0 1.555.704 1.555 1.573v18.664c0 .869-.696 1.573-1.555 1.573h-10.108a1.57 1.57 0 01-1.555-1.564V104.012c0-.869.696-1.573 1.555-1.573h10.108zm17.844 0c.86 0 1.556.704 1.556 1.574v18.663c0 .869-.697 1.573-1.556 1.573h-10.107a1.57 1.57 0 01-1.555-1.564V104.012c0-.869.696-1.573 1.555-1.573h10.107zm-35.028 0c.859 0 1.555.704 1.555 1.573v18.664c0 .869-.696 1.573-1.555 1.573h-10.108a1.57 1.57 0 01-1.555-1.564V104.012c0-.869.696-1.573 1.555-1.573h10.108zm15.628 9.122h-6.996v9.542h6.996v-9.542zm17.845 0h-6.996v9.542h6.996v-9.542zm-35.029 0h-6.996v9.542h6.996v-9.542zm17.184-5.976h-6.996v2.83h6.996v-2.83zm17.845 0h-6.996v2.83h6.996v-2.83zm-35.029 0h-6.996v2.83h6.996v-2.83zm53.108-28.922c.859 0 1.555.704 1.555 1.573v18.665c0 .868-.696 1.572-1.555 1.572h-10.108a1.571 1.571 0 01-1.555-1.572V78.236c0-.869.696-1.573 1.555-1.573h10.108zm-34.368 0c.859 0 1.555.704 1.555 1.573v18.665c0 .868-.696 1.572-1.555 1.572h-10.108a1.571 1.571 0 01-1.555-1.572V78.236c0-.869.696-1.573 1.555-1.573h10.108zm51.552 0c.859 0 1.555.704 1.555 1.573v18.665c0 .868-.696 1.572-1.555 1.572h-10.108a1.571 1.571 0 01-1.555-1.572V78.236c0-.869.696-1.573 1.555-1.573h10.108zm-33.707 0c.859 0 1.555.704 1.555 1.573v18.665c0 .868-.696 1.572-1.555 1.572H635.67a1.571 1.571 0 01-1.555-1.572V78.236c0-.869.696-1.573 1.555-1.573h10.109zm-35.03 0c.86 0 1.556.704 1.556 1.573v18.665c0 .868-.696 1.572-1.555 1.572h-10.108a1.571 1.571 0 01-1.555-1.572V78.236c0-.869.696-1.573 1.555-1.573h10.107zm49.997 9.123h-6.996v9.542h6.996v-9.542zm-34.368 0h-6.996v9.542h6.996v-9.542zm51.552 0h-6.996v9.542h6.996v-9.542zm-33.707 0h-6.996v9.542h6.996v-9.542zm-35.029 0h-6.996v9.542h6.996v-9.542zm51.552-5.977h-6.996v2.831h6.996v-2.831zm-34.368 0h-6.996v2.831h6.996v-2.831zm51.552 0h-6.996v2.831h6.996v-2.831zm-33.707 0h-6.996v2.831h6.996v-2.831zm-35.029 0h-6.996v2.831h6.996v-2.831zm53.108-28.922c.859 0 1.555.704 1.555 1.573v18.665c0 .868-.696 1.573-1.555 1.573h-10.108a1.57 1.57 0 01-1.555-1.564V52.46c0-.868.696-1.573 1.555-1.573h10.108zm17.184 0c.859 0 1.555.704 1.555 1.573v18.665c0 .868-.696 1.573-1.555 1.573h-10.108a1.57 1.57 0 01-1.555-1.564V52.46c0-.868.696-1.573 1.555-1.573h10.108zm-18.74 9.124h-6.996v9.54h6.996v-9.54zm17.184 0h-6.996v9.54h6.996v-9.54zm-51.402-20.36c.854 0 1.546.693 1.546 1.547v6.478h6.478c.854 0 1.546.693 1.546 1.546v7.296c0 .853-.692 1.546-1.546 1.546h-6.478v6.478c0 .854-.693 1.546-1.546 1.546h-7.296a1.554 1.554 0 01-1.546-1.546v-6.478h-6.478a1.554 1.554 0 01-1.546-1.546v-7.296c0-.853.692-1.546 1.546-1.546h6.478v-6.478c0-.854.693-1.546 1.546-1.546l7.296-.001zm-1.546 3.093h-4.203v6.478c0 .854-.693 1.547-1.546 1.547h-6.479v4.202h6.479c.853 0 1.546.693 1.546 1.546v6.479h4.203v-6.479c0-.853.692-1.546 1.546-1.546h6.478V50.77h-6.478a1.554 1.554 0 01-1.546-1.546v-6.48zm35.764 11.29h-6.996v2.83h6.996v-2.83zm17.184 0h-6.996v2.83h6.996v-2.83z" fill="#fff"/></svg>